<?xml version="1.0" encoding="UTF-8"?>
<svg id="_레이어_2" data-name="레이어_2" xmlns="http://www.w3.org/2000/svg" viewBox="0 0 371.75 132.83">
  <defs>
    <style>
      .cls-1 {
        fill: #00a0e9;
        stroke: #231815;
        stroke-miterlimit: 10;
        stroke-width: .89px;
      }
    </style>
  </defs>
  <g id="_레이어_1-2" data-name="레이어_1">
    <g>
      <path class="cls-1" d="M46.04,3.64c-5.9,0-6.79,1.16-6.79,5.11v45.69h-3.55L9.83,12.23v34.9c0,3.94.89,5.11,7.04,5.11v1.55H.44v-1.55c5.9,0,6.72-1.16,6.72-5.11V7.9l-.06-.13C4.95,4.22,3.23,3.64.51,3.64v-1.55h11.61l24.48,40.39V8.74c0-3.94-.82-5.11-6.72-5.11v-1.55h16.17v1.55Z"/>
      <path class="cls-1" d="M56.26,47.13c0,4.14.63,5.11,4.5,5.11v1.55h-15.09v-1.55c3.87,0,4.5-.97,4.5-5.11v-19.9c0-4.33-.06-5.24-3.74-3.68l-.57-1.49,9.32-3.81,1.08.97v27.92ZM48.59,8.1c0-2.33,1.71-4.01,4.12-4.01s4.06,1.68,4.06,4.01-1.71,3.94-4.06,3.94-4.12-1.68-4.12-3.94Z"/>
      <path class="cls-1" d="M73.64,47.13c0,4.14.51,5.11,3.93,5.11v1.55h-14.59v-1.55c3.87,0,4.5-.97,4.5-5.11V9.78c0-4.14,0-4.98-3.81-3.04l-.63-1.42,9.64-4.78.95.9v45.69ZM89.62,47.97c2.03,3.68,3.68,4.27,6.34,4.27v1.55h-15.16v-1.55c4.31,0,3.81-.58,1.78-4.27l-7.61-13.7,7.17-9.05c2.54-3.1,1.46-4.14-2.35-4.14v-1.55h14.4v1.55c-2.98,0-5.01.39-7.67,3.55l-5.9,7.24,9.01,16.09Z"/>
      <path class="cls-1" d="M95.33,36.79c0-10.41,5.01-18.42,13.64-18.42,8.18,0,13.63,7.43,13.63,18.03s-5.07,18.42-13.63,18.42-13.64-7.43-13.64-18.03ZM116.2,40.22c0-8.79-2.6-19-8.18-19-4.5,0-6.34,6.07-6.34,11.76,0,8.79,2.66,19,8.24,19,4.5,0,6.28-6.08,6.28-11.76Z"/>
      <path class="cls-1" d="M125.46,52.24c3.68,0,4.31-.97,4.31-5.11v-19.9c0-4.33,0-5.24-3.81-3.62l-.63-1.49,5.07-2.07,4.31-1.81,1.21.97v5.95h.19c2.85-4.01,5.71-6.79,10.02-6.79s6.98,3.3,6.98,9.37v19.39c0,4.14.57,5.11,4.19,5.11v1.55h-14.21v-1.55c3.36,0,3.87-.97,3.87-5.11v-19c0-3.55-1.33-5.24-3.74-5.24-2.6,0-4.88,1.81-7.29,4.98v19.26c0,4.14.51,5.11,3.87,5.11v1.55h-14.33v-1.55Z"/>
      <path class="cls-1" d="M194.47,1.05c4.06,0,7.48,1.16,10.4,4.01.95.9,1.71.65,1.84-.58l.32-2.84h1.46l.95,18.29h-1.46c-1.78-10.21-5.64-16.03-12.37-16.03-8.88,0-13.95,10.15-13.95,23.65s5.2,23.46,13.95,23.46c7.74,0,12.37-7.82,13.7-18.22h1.84c-1.21,13.51-6.85,22.04-17.63,22.04-12.56,0-19.6-11.7-19.6-26.43,0-15.58,8.25-27.34,20.55-27.34Z"/>
      <path class="cls-1" d="M215.53,36.79c0-10.41,5.01-18.42,13.64-18.42,8.18,0,13.63,7.43,13.63,18.03s-5.07,18.42-13.63,18.42-13.64-7.43-13.64-18.03ZM236.39,40.22c0-8.79-2.6-19-8.18-19-4.5,0-6.34,6.07-6.34,11.76,0,8.79,2.66,19,8.24,19,4.5,0,6.28-6.08,6.28-11.76Z"/>
      <path class="cls-1" d="M247.05,36.79c0-10.41,5.01-18.42,13.64-18.42,8.18,0,13.63,7.43,13.63,18.03s-5.07,18.42-13.63,18.42-13.64-7.43-13.64-18.03ZM267.91,40.22c0-8.79-2.6-19-8.18-19-4.5,0-6.34,6.07-6.34,11.76,0,8.79,2.66,19,8.24,19,4.5,0,6.28-6.08,6.28-11.76Z"/>
      <path class="cls-1" d="M287.14,47.13c0,4.14.57,5.11,4.44,5.11v1.55h-15.09v-1.55c3.87,0,4.5-.97,4.5-5.11V9.78c0-4.14,0-4.98-3.81-3.04l-.63-1.42,9.64-4.78.95.9v45.69Z"/>
      <path class="cls-1" d="M322.02,35.37c0,10.6-4,19.19-10.91,19.19-2.98,0-5.9-1.55-7.61-4.65h-.13v11.44c0,4.2.63,5.11,4.5,5.11v1.55h-15.09v-1.55c3.87,0,4.44-.9,4.44-5.11V27.23c0-4.33,0-5.24-3.81-3.68l-.57-1.49,9.51-3.81,1.01.97v5.69h.25c2.47-4.14,5.39-6.53,8.94-6.53,6.41,0,9.45,7.04,9.45,17ZM315.36,36.34c0-8.66-1.71-13.51-5.39-13.51-2.6,0-4.95,2.33-6.6,5.17v11.76c0,7.24,2.79,11.7,6.15,11.7,4.31,0,5.83-7.24,5.83-15.12Z"/>
      <path class="cls-1" d="M335.59,47.13c0,4.14.63,5.11,4.5,5.11v1.55h-15.09v-1.55c3.87,0,4.5-.97,4.5-5.11v-19.9c0-4.33-.06-5.24-3.74-3.68l-.57-1.49,9.32-3.81,1.08.97v27.92ZM327.92,8.1c0-2.33,1.71-4.01,4.12-4.01s4.06,1.68,4.06,4.01-1.71,3.94-4.06,3.94-4.12-1.68-4.12-3.94Z"/>
      <path class="cls-1" d="M365.28,47.84c1.84,3.75,3.36,4.39,6.02,4.39v1.55h-14.52v-1.55c4.06,0,3.68-.65,1.78-4.39l-4.06-8.14-3.87,8.08c-1.78,3.75-2.16,4.46,2.03,4.46v1.55h-11.23v-1.55c2.98,0,4.5-.65,6.34-4.39l5.39-10.92-5.64-11.44c-1.84-3.75-3.36-4.39-5.77-4.39v-1.55h13.95v1.55c-3.87,0-3.42.65-1.52,4.39l3.68,7.37,3.74-7.37c1.9-3.75,2.41-4.39-1.59-4.39v-1.55h10.46v1.55c-2.54,0-4.12.65-6.03,4.33l-5.26,10.15,6.09,12.28Z"/>
      <path class="cls-1" d="M117.34,127.15c0-1.62,1.21-2.71,2.79-2.71,1.71,0,2.6,1.29,3.55,2.52,1.08,1.42,2.41,2.59,4.57,2.59,4.19,0,8.75-5.04,8.75-15.83,0-9.44-3.3-13.31-8.05-13.31-2.54,0-4.76,1.16-6.53,3.23l-2.09-1.55,4.88-22.42h18.2l-1.33,5.75h-14.9l-2.79,13.77.25.19c2.28-1.94,4.69-2.78,7.29-2.78,7.04,0,12.37,6.27,12.37,15.83,0,13.25-8.05,19.97-16.68,19.97-5.26,0-10.27-2.13-10.27-5.24Z"/>
      <path class="cls-1" d="M179.88,112.61c0,9.76-4.69,19.78-14.46,19.78s-15.28-8.73-15.28-21.84c0-16.54,9.51-29.15,26.51-32.18v1.55c-10.65,2.84-15.79,11.5-17.95,20.55,2.03-2.46,5.2-4.52,8.94-4.52,8.31,0,12.24,7.75,12.24,16.67ZM172.58,114.22c0-8.14-1.65-15.32-7.29-15.32-2.92,0-5.52,1.68-7.23,4.78-.44,2.84-.63,5.56-.63,8.14,0,11.12,2.85,17.9,7.99,17.9s7.17-5.43,7.17-15.51Z"/>
      <path class="cls-1" d="M185.08,105.3c0-14.73,5.2-26.69,15.35-26.69s15.28,11.96,15.28,26.69-5.2,27.01-15.28,27.01-15.35-12.09-15.35-27.01ZM208.48,105.3c0-14.02-2.22-24.04-8.05-24.04s-8.05,10.02-8.05,24.04,2.16,24.36,8.05,24.36,8.05-10.15,8.05-24.36Z"/>
      <path class="cls-1" d="M221.61,105.3c0-14.73,5.2-26.69,15.35-26.69s15.28,11.96,15.28,26.69-5.2,27.01-15.28,27.01-15.35-12.09-15.35-27.01ZM245.02,105.3c0-14.02-2.22-24.04-8.05-24.04s-8.05,10.02-8.05,24.04,2.16,24.36,8.05,24.36,8.05-10.15,8.05-24.36Z"/>
    </g>
  </g>
</svg>