<?xml version="1.0" encoding="UTF-8"?>
<svg id="_레이어_2" data-name="레이어_2" xmlns="http://www.w3.org/2000/svg" viewBox="0 0 210.49 73.44">
  <defs>
    <style>
      .cls-1 {
        fill: #231815;
      }
    </style>
  </defs>
  <g id="_레이어_1-2" data-name="레이어_1">
    <g>
      <path class="cls-1" d="M25.88,1.73c-3.35,0-3.85.65-3.85,2.84v25.45h-2.02L5.33,6.52v19.44c0,2.2.5,2.84,4,2.84v.86H0v-.86c3.35,0,3.82-.65,3.82-2.84V4.1l-.04-.07C2.56,2.05,1.58,1.73.04,1.73v-.86h6.59l13.89,22.5V4.57c0-2.2-.47-2.84-3.82-2.84v-.86h9.18v.86Z"/>
      <path class="cls-1" d="M31.68,25.95c0,2.3.36,2.84,2.56,2.84v.86h-8.57v-.86c2.2,0,2.56-.54,2.56-2.84v-11.09c0-2.41-.04-2.92-2.12-2.05l-.32-.83,5.29-2.12.61.54v15.55ZM27.32,4.21c0-1.3.97-2.23,2.34-2.23s2.3.94,2.3,2.23-.97,2.2-2.3,2.2-2.34-.94-2.34-2.2Z"/>
      <path class="cls-1" d="M41.54,25.95c0,2.3.29,2.84,2.23,2.84v.86h-8.28v-.86c2.2,0,2.56-.54,2.56-2.84V5.15c0-2.3,0-2.77-2.16-1.69l-.36-.79,5.47-2.66.54.5v25.45ZM50.61,26.42c1.15,2.05,2.09,2.38,3.6,2.38v.86h-8.6v-.86c2.45,0,2.16-.32,1.01-2.38l-4.32-7.63,4.07-5.04c1.44-1.73.83-2.3-1.33-2.3v-.86h8.17v.86c-1.69,0-2.84.22-4.36,1.98l-3.35,4.03,5.11,8.96Z"/>
      <path class="cls-1" d="M53.86,20.19c0-5.8,2.84-10.26,7.74-10.26,4.64,0,7.74,4.14,7.74,10.04s-2.88,10.26-7.74,10.26-7.74-4.14-7.74-10.04ZM65.7,22.1c0-4.9-1.48-10.58-4.64-10.58-2.56,0-3.6,3.38-3.6,6.55,0,4.9,1.51,10.58,4.68,10.58,2.56,0,3.56-3.38,3.56-6.55Z"/>
      <path class="cls-1" d="M70.96,28.8c2.09,0,2.45-.54,2.45-2.84v-11.09c0-2.41,0-2.92-2.16-2.02l-.36-.83,2.88-1.15,2.45-1.01.68.54v3.31h.11c1.62-2.23,3.24-3.78,5.69-3.78s3.96,1.84,3.96,5.22v10.8c0,2.3.32,2.84,2.38,2.84v.86h-8.06v-.86c1.91,0,2.2-.54,2.2-2.84v-10.58c0-1.98-.76-2.92-2.12-2.92-1.48,0-2.77,1.01-4.14,2.77v10.73c0,2.3.29,2.84,2.2,2.84v.86h-8.14v-.86Z"/>
      <path class="cls-1" d="M110.12.29c2.3,0,4.25.65,5.9,2.23.54.5.97.36,1.04-.32l.18-1.58h.83l.54,10.19h-.83c-1.01-5.69-3.2-8.93-7.02-8.93-5.04,0-7.92,5.65-7.92,13.17s2.95,13.07,7.92,13.07c4.39,0,7.02-4.36,7.77-10.15h1.04c-.68,7.52-3.89,12.27-10.01,12.27-7.13,0-11.12-6.52-11.12-14.72,0-8.68,4.68-15.23,11.66-15.23Z"/>
      <path class="cls-1" d="M122.08,20.19c0-5.8,2.84-10.26,7.74-10.26,4.64,0,7.74,4.14,7.74,10.04s-2.88,10.26-7.74,10.26-7.74-4.14-7.74-10.04ZM133.92,22.1c0-4.9-1.48-10.58-4.64-10.58-2.56,0-3.6,3.38-3.6,6.55,0,4.9,1.51,10.58,4.68,10.58,2.56,0,3.56-3.38,3.56-6.55Z"/>
      <path class="cls-1" d="M139.97,20.19c0-5.8,2.84-10.26,7.74-10.26,4.64,0,7.74,4.14,7.74,10.04s-2.88,10.26-7.74,10.26-7.74-4.14-7.74-10.04ZM151.81,22.1c0-4.9-1.48-10.58-4.64-10.58-2.56,0-3.6,3.38-3.6,6.55,0,4.9,1.51,10.58,4.68,10.58,2.56,0,3.56-3.38,3.56-6.55Z"/>
      <path class="cls-1" d="M162.72,25.95c0,2.3.32,2.84,2.52,2.84v.86h-8.57v-.86c2.2,0,2.56-.54,2.56-2.84V5.15c0-2.3,0-2.77-2.16-1.69l-.36-.79,5.47-2.66.54.5v25.45Z"/>
      <path class="cls-1" d="M182.52,19.4c0,5.9-2.27,10.69-6.19,10.69-1.69,0-3.35-.86-4.32-2.59h-.07v6.37c0,2.34.36,2.84,2.56,2.84v.86h-8.57v-.86c2.2,0,2.52-.5,2.52-2.84V14.87c0-2.41,0-2.92-2.16-2.05l-.32-.83,5.4-2.12.58.54v3.17h.14c1.4-2.3,3.06-3.64,5.08-3.64,3.64,0,5.36,3.92,5.36,9.47ZM178.74,19.94c0-4.82-.97-7.52-3.06-7.52-1.48,0-2.81,1.3-3.74,2.88v6.55c0,4.03,1.58,6.52,3.49,6.52,2.45,0,3.31-4.03,3.31-8.42Z"/>
      <path class="cls-1" d="M190.22,25.95c0,2.3.36,2.84,2.56,2.84v.86h-8.57v-.86c2.2,0,2.56-.54,2.56-2.84v-11.09c0-2.41-.04-2.92-2.12-2.05l-.32-.83,5.29-2.12.61.54v15.55ZM185.87,4.21c0-1.3.97-2.23,2.34-2.23s2.3.94,2.3,2.23-.97,2.2-2.3,2.2-2.34-.94-2.34-2.2Z"/>
      <path class="cls-1" d="M207.07,26.35c1.04,2.09,1.91,2.45,3.42,2.45v.86h-8.24v-.86c2.3,0,2.09-.36,1.01-2.45l-2.3-4.54-2.2,4.5c-1.01,2.09-1.22,2.48,1.15,2.48v.86h-6.37v-.86c1.69,0,2.56-.36,3.6-2.45l3.06-6.08-3.2-6.37c-1.04-2.09-1.91-2.45-3.28-2.45v-.86h7.92v.86c-2.2,0-1.94.36-.86,2.45l2.09,4.1,2.12-4.1c1.08-2.09,1.37-2.45-.9-2.45v-.86h5.94v.86c-1.44,0-2.34.36-3.42,2.41l-2.99,5.65,3.46,6.84Z"/>
      <path class="cls-1" d="M66.35,70.52c0-.9.68-1.51,1.58-1.51.97,0,1.48.72,2.02,1.4.61.79,1.37,1.44,2.59,1.44,2.38,0,4.97-2.81,4.97-8.82,0-5.26-1.87-7.42-4.57-7.42-1.44,0-2.7.65-3.71,1.8l-1.19-.86,2.77-12.49h10.33l-.76,3.2h-8.46l-1.58,7.67.14.11c1.3-1.08,2.66-1.55,4.14-1.55,4,0,7.02,3.49,7.02,8.82,0,7.38-4.57,11.12-9.47,11.12-2.99,0-5.83-1.19-5.83-2.92Z"/>
      <path class="cls-1" d="M101.84,62.42c0,5.44-2.66,11.01-8.21,11.01s-8.67-4.86-8.67-12.17c0-9.21,5.4-16.23,15.05-17.93v.86c-6.05,1.58-8.96,6.41-10.19,11.45,1.15-1.37,2.95-2.52,5.08-2.52,4.72,0,6.95,4.32,6.95,9.29ZM97.7,63.32c0-4.54-.94-8.53-4.14-8.53-1.66,0-3.13.94-4.1,2.66-.25,1.58-.36,3.1-.36,4.54,0,6.19,1.62,9.97,4.54,9.97s4.07-3.02,4.07-8.64Z"/>
      <path class="cls-1" d="M104.8,58.35c0-8.21,2.95-14.87,8.71-14.87s8.67,6.66,8.67,14.87-2.95,15.05-8.67,15.05-8.71-6.73-8.71-15.05ZM118.08,58.35c0-7.81-1.26-13.39-4.57-13.39s-4.57,5.58-4.57,13.39,1.22,13.57,4.57,13.57,4.57-5.65,4.57-13.57Z"/>
      <path class="cls-1" d="M125.53,58.35c0-8.21,2.95-14.87,8.71-14.87s8.67,6.66,8.67,14.87-2.95,15.05-8.67,15.05-8.71-6.73-8.71-15.05ZM138.81,58.35c0-7.81-1.26-13.39-4.57-13.39s-4.57,5.58-4.57,13.39,1.22,13.57,4.57,13.57,4.57-5.65,4.57-13.57Z"/>
    </g>
  </g>
</svg>